Coordinates
version=1
nRows=14
nColumns=40
inDegrees=yes

Units are S.I. units (second, meters, Newtons, ...)
Angles are in degrees.

endheader
time	pelvis_tilt	pelvis_list	pelvis_rotation	pelvis_tx	pelvis_ty	pelvis_tz	hip_flexion_r	hip_adduction_r	hip_rotation_r	knee_angle_r	knee_angle_r_beta	ankle_angle_r	subtalar_angle_r	mtp_angle_r	hip_flexion_l	hip_adduction_l	hip_rotation_l	knee_angle_l	knee_angle_l_beta	ankle_angle_l	subtalar_angle_l	mtp_angle_l	lumbar_extension	lumbar_bending	lumbar_rotation	arm_flex_r	arm_add_r	arm_rot_r	elbow_flex_r	pro_sup_r	wrist_flex_r	wrist_dev_r	arm_flex_l	arm_add_l	arm_rot_l	elbow_flex_l	pro_sup_l	wrist_flex_l	wrist_dev_l
     11.39500000	     -6.05131033	     -3.56547342	     -0.31325942	      0.97418416	      0.92501070	      0.44588312	     -0.03918181	     -0.48418453	    -16.56641323	     22.75061229	     22.75061229	     15.64122481	      8.54227023	    -10.28588339	     26.46767812	     -3.61577739	     -4.06293102	     24.14789843	     24.14789843	      7.86998562	    -17.38529173	     11.22786254	     -7.11698989	      6.37337558	      4.82896251	     17.38570565	    -16.92141606	     -7.54184703	     78.26847160	     45.14592579	      0.00000000	      0.00000000	     -5.77208214	     -8.24751551	      0.30701444	     36.74388930	     45.35393759	      0.00000000	      0.00000000
     11.40771429	     -6.11761867	     -3.46736786	     -0.59567655	      0.97431236	      0.92582520	      0.44357553	      1.12112560	     -1.37989801	    -16.18311909	     25.66497347	     25.66497347	     14.90581292	      8.11108779	    -11.33891457	     25.82569069	     -3.45164735	     -4.41256324	     23.94973357	     23.94973357	      8.33041097	    -17.26275986	     10.95074665	     -7.12496029	      6.36255506	      5.16946366	     15.41459813	    -17.13140826	     -7.78879835	     75.88992271	     45.22707090	      0.00000000	      0.00000000	     -4.84355970	     -8.34440855	     -0.04259433	     37.87984737	     45.42075622	      0.00000000	      0.00000000
     11.42042857	     -6.14519666	     -3.37354119	     -0.88123913	      0.97442010	      0.92655270	      0.44138536	      2.44118442	     -2.27708549	    -15.64960778	     28.86855011	     28.86855011	     13.79114563	      7.34923895	    -12.68808692	     25.13139305	     -3.30857128	     -4.82412774	     23.73997030	     23.73997030	      8.76814718	    -17.11158354	     10.61275799	     -7.13466708	      6.29749118	      5.42698805	     13.62216466	    -17.17082077	     -8.12730468	     73.22130244	     45.32084311	      0.00000000	      0.00000000	     -4.01355796	     -8.51384471	     -0.42071123	     39.36478394	     45.48880932	      0.00000000	      0.00000000
     11.43314286	     -6.14093371	     -3.38726655	     -1.11542751	      0.97440949	      0.92713167	      0.43935581	      3.70008422	     -2.88381184	    -14.82300115	     31.67233129	     31.67233129	     10.67190254	      5.10084065	    -18.84006594	     24.41056740	     -3.27555461	     -5.17974207	     23.48883875	     23.48883875	      8.86904393	    -16.98874878	      9.38768148	     -7.16986613	      6.30047002	      4.48787297	     13.64669076	    -16.15823637	     -8.30214282	     67.37308921	     45.51055697	      0.00000000	      0.00000000	     -4.82469750	     -8.86371609	     -2.12347278	     43.77959190	     45.76725926	      0.00000000	      0.00000000
     11.44585714	     -6.01578454	     -3.28236976	     -1.30712694	      0.97425282	      0.92768137	      0.43716042	      5.28405373	     -3.81068171	    -14.18844207	     35.49450442	     35.49450442	      9.24591032	      4.00429654	    -19.38028086	     23.60610224	     -3.08542407	     -5.50474088	     23.32919077	     23.32919077	      9.39472756	    -16.72315101	      9.06668860	     -7.45317855	      6.29819265	      4.58099171	     11.82900237	    -16.19222517	     -8.27787195	     65.64600907	     45.55934906	      0.00000000	      0.00000000	     -3.71012843	     -9.10663033	     -2.36508524	     44.83026340	     45.81577258	      0.00000000	      0.00000000
     11.45857143	     -6.15004382	     -3.31996212	     -1.63759707	      0.97380433	      0.92781768	      0.43551963	      7.35865387	     -4.21362484	    -12.69887287	     39.29467778	     39.29467778	      6.88544398	      1.02810559	    -20.95185219	     23.09637102	     -3.16519660	     -6.06776177	     23.16100724	     23.16100724	      9.59447373	    -16.38417110	      7.98195927	     -7.35312353	      6.34880020	      4.58400536	     11.16457246	    -15.62586791	     -9.35566161	     60.17086518	     45.77375497	      0.00000000	      0.00000000	     -3.79698469	     -9.62874732	     -2.64868326	     48.75321960	     45.90531302	      0.00000000	      0.00000000
     11.47128571	     -6.13908511	     -3.26288802	     -1.85738080	      0.97321333	      0.92795654	      0.43365574	      9.44115329	     -4.82277062	    -11.60132546	     43.34852506	     43.34852506	      4.80168172	     -1.03747218	    -21.07692960	     22.49005217	     -3.06771633	     -6.45878483	     23.06624389	     23.06624389	      9.96909770	    -16.13315341	      7.38725411	     -7.53231909	      6.35281159	      4.79413864	      9.59364832	    -15.64671789	     -9.33150672	     57.34429705	     45.85666585	      0.00000000	      0.00000000	     -2.90486076	     -9.96828083	     -2.96656207	     50.82144057	     45.97862407	      0.00000000	      0.00000000
     11.48400000	     -6.10292168	     -3.25665897	     -2.08336624	      0.97249076	      0.92807844	      0.43203999	     11.61377094	     -5.17228130	    -10.33415526	     47.36909945	     47.36909945	      2.60409244	     -3.52982048	    -20.39907928	     21.88245516	     -3.05706990	     -6.89378889	     23.00346285	     23.00346285	     10.31806732	    -15.79949322	      6.59834468	     -7.72546919	      6.40513458	      4.86234491	      8.49241254	    -15.42648735	     -9.45988370	     53.76136450	     45.97231351	      0.00000000	      0.00000000	     -2.31923826	    -10.46009683	     -3.15621369	     53.55444566	     46.05004746	      0.00000000	      0.00000000
     11.49671429	     -6.06492952	     -3.00310174	     -2.29761232	      0.97166153	      0.92812879	      0.43030823	     13.88298818	     -5.83984249	     -9.25181974	     51.35079693	     51.35079693	      0.46812860	     -5.28382943	    -19.68415312	     21.22281135	     -2.73846641	     -7.32090042	     22.81647122	     22.81647122	     10.72564513	    -15.54890790	      6.23408862	     -7.90854772	      6.23800582	      4.78502999	      6.96154719	    -15.21721620	     -9.36787939	     51.91820549	     46.02234346	      0.00000000	      0.00000000	     -1.27006063	    -10.93609485	     -3.41053565	     54.96959328	     46.10354222	      0.00000000	      0.00000000
     11.50942857	     -6.00846175	     -3.17809958	     -2.50384873	      0.97068115	      0.92832813	      0.42906085	     16.15421565	     -5.65643609	     -7.95307476	     55.12950588	     55.12950588	     -0.81684587	     -7.17781975	    -15.87233200	     20.62947403	     -2.95349738	     -7.76228662	     22.78816315	     22.78816315	     10.98197073	    -15.07537947	      4.97829171	     -8.16736843	      6.44954326	      4.40479823	      7.07129799	    -14.68588221	     -9.67516752	     46.01365226	     46.22728474	      0.00000000	      0.00000000	     -1.45334830	    -11.83264577	     -3.23658263	     59.51731097	     46.18354057	      0.00000000	      0.00000000
     11.52214286	     -5.99780319	     -3.16668637	     -2.72115750	      0.96965591	      0.92856240	      0.42781122	     18.44667505	     -5.62229150	     -6.75432875	     58.53248617	     58.53248617	     -2.31273848	     -8.82536414	    -13.63404781	     19.97780317	     -2.87680752	     -7.97108246	     22.52880989	     22.52880989	     11.30089117	    -15.01259756	      4.61125037	     -8.34030055	      6.46942566	      4.62724734	      5.60629581	    -14.62428348	     -9.52096771	     43.42010106	     46.29462030	      0.00000000	      0.00000000	     -0.36271350	    -12.11168020	     -3.71779747	     61.50577240	     46.27767973	      0.00000000	      0.00000000
     11.53485714	     -5.99173816	     -3.02099514	     -2.95727949	      0.96860711	      0.92883870	      0.42655940	     20.68524189	     -5.71798930	     -5.73030934	     61.53905567	     61.53905567	     -3.68598301	    -10.11416433	    -12.37264090	     19.29117852	     -2.65152325	     -8.27667087	     22.19395883	     22.19395883	     11.67691562	    -14.83426995	      4.38978736	     -8.50887751	      6.45298771	      4.55674185	      4.15721610	    -14.39887288	     -9.39198009	     41.84254234	     46.33341725	      0.00000000	      0.00000000	      0.72814501	    -12.57061235	     -4.03588498	     62.87586856	     46.33763823	      0.00000000	      0.00000000
     11.54757143	     -5.95416570	     -3.11206986	     -3.16254466	      0.96750960	      0.92933057	      0.42564686	     22.98182161	     -5.41460192	     -4.81870477	     64.54006267	     64.54006267	     -2.63260013	     -9.90317998	     -5.05505188	     18.56297529	     -2.70172431	     -8.54120094	     21.82692063	     21.82692063	     11.73747338	    -14.70144262	      3.48737778	     -8.71445580	      6.56531317	      3.84988110	      4.67689282	    -13.85492556	     -9.29756622	     36.01349442	     46.48786139	      0.00000000	      0.00000000	      0.59368110	    -13.22084577	     -4.95427242	     66.80968380	     46.57224579	      0.00000000	      0.00000000
     11.56028571	     -5.96707258	     -3.11124651	     -3.41833280	      0.96643073	      0.92985071	      0.42480940	     25.04021034	     -5.11681791	     -4.00867972	     66.59782060	     66.59782060	     -3.44213148	    -10.91041806	     -4.59599920	     17.83180553	     -2.63407272	     -8.77364731	     21.37505809	     21.37505809	     12.09563696	    -14.52030404	      3.40919706	     -8.86968187	      6.67472621	      4.03498550	      3.03495549	    -13.77849895	     -9.18613506	     34.87063792	     46.50862330	      0.00000000	      0.00000000	      1.79148627	    -13.50554263	     -5.27440360	     68.23529263	     46.63279079	      0.00000000	      0.00000000
